<svg width="28" height="27" viewBox="0 0 28 27" fill="none" xmlns="http://www.w3.org/2000/svg">
<path d="M14 9C14 9 14 9 13.145 7.875C12.155 6.57 10.6925 5.625 8.9375 5.625C6.13625 5.625 3.875 7.88625 3.875 10.6875C3.875 11.7338 4.19 12.7013 4.73 13.5C5.64125 14.8613 14 23.625 14 23.625M14 9C14 9 14 9 14.855 7.875C15.845 6.57 17.3075 5.625 19.0625 5.625C21.8638 5.625 24.125 7.88625 24.125 10.6875C24.125 11.7338 23.81 12.7013 23.27 13.5C22.3587 14.8613 14 23.625 14 23.625" stroke="#24364A" stroke-width="3" stroke-linecap="round" stroke-linejoin="round"/>
</svg>
