<svg width="45" height="44" viewBox="0 0 45 44" fill="none" xmlns="http://www.w3.org/2000/svg">
<path d="M22.5022 15.625C20.7783 15.625 19.125 16.2966 17.906 17.4922C16.687 18.6877 16.0022 20.3092 16.0022 22C16.0022 23.6908 16.687 25.3123 17.906 26.5078C19.125 27.7034 20.7783 28.375 22.5022 28.375C24.2261 28.375 25.8794 27.7034 27.0984 26.5078C28.3174 25.3123 29.0022 23.6908 29.0022 22C29.0022 20.3092 28.3174 18.6877 27.0984 17.4922C25.8794 16.2966 24.2261 15.625 22.5022 15.625ZM22.5022 11.375C25.3754 11.375 28.1309 12.4944 30.1625 14.487C32.1942 16.4796 33.3355 19.1821 33.3355 22C33.3355 24.8179 32.1942 27.5204 30.1625 29.513C28.1309 31.5056 25.3754 32.625 22.5022 32.625C19.629 32.625 16.8735 31.5056 14.8419 29.513C12.8102 27.5204 11.6689 24.8179 11.6689 22C11.6689 19.1821 12.8102 16.4796 14.8419 14.487C16.8735 12.4944 19.629 11.375 22.5022 11.375ZM36.5855 10.8438C36.5855 11.5482 36.3002 12.2239 35.7923 12.722C35.2844 13.2201 34.5955 13.5 33.8772 13.5C33.1589 13.5 32.47 13.2201 31.9621 12.722C31.4542 12.2239 31.1689 11.5482 31.1689 10.8438C31.1689 10.1393 31.4542 9.46364 31.9621 8.9655C32.47 8.46735 33.1589 8.1875 33.8772 8.1875C34.5955 8.1875 35.2844 8.46735 35.7923 8.9655C36.3002 9.46364 36.5855 10.1393 36.5855 10.8438ZM22.5022 5C17.1419 5 16.2665 5.01488 13.7727 5.12325C12.074 5.20188 10.9344 5.425 9.87704 5.82875C8.99268 6.14829 8.19293 6.65885 7.53704 7.32262C6.85947 7.96569 6.33814 8.75007 6.01171 9.61762C5.60004 10.6589 5.37254 11.7745 5.29454 13.4384C5.18187 15.7844 5.16671 16.6046 5.16671 22C5.16671 27.2594 5.18187 28.1157 5.29237 30.5616C5.37254 32.2255 5.60004 33.3454 6.00954 34.3802C6.37787 35.3046 6.81121 35.9697 7.53054 36.6753C8.26071 37.3893 8.93887 37.8164 9.87054 38.1691C10.9409 38.575 12.0805 38.8002 13.7705 38.8767C16.1625 38.9872 16.9989 39 22.5 39C27.8625 39 28.7357 38.9851 31.2295 38.8767C32.9239 38.7981 34.0635 38.575 35.123 38.1734C36.0074 37.8538 36.8071 37.3433 37.463 36.6795C38.1932 35.9655 38.6287 35.3004 38.9884 34.3845C39.4 33.339 39.6297 32.2213 39.7077 30.5595C39.8204 28.2156 39.8334 27.3932 39.8334 22C39.8334 16.7428 39.8182 15.8843 39.7077 13.4384C39.6275 11.7766 39.3979 10.6546 38.9884 9.61762C38.6626 8.75027 38.142 7.96591 37.4652 7.32262C36.8095 6.65808 36.0098 6.14678 35.1252 5.82662C34.0635 5.42287 32.9239 5.19975 31.2295 5.12325C28.8397 5.01275 28.0034 5 22.5 5M22.5 0.75C28.3869 0.75 29.1214 0.77125 31.4332 0.8775C33.7385 0.98375 35.3115 1.33863 36.6917 1.86563C38.1217 2.40538 39.3264 3.13637 40.531 4.31575C41.6332 5.37768 42.4858 6.66275 43.0292 8.08125C43.5644 9.43487 43.9284 10.9776 44.0367 13.2407C44.1385 15.506 44.1667 16.2264 44.1667 22C44.1667 27.7736 44.145 28.494 44.0367 30.7592C43.9284 33.0245 43.5644 34.563 43.0292 35.9187C42.4858 37.3372 41.6332 38.6223 40.531 39.6842C39.4483 40.7652 38.138 41.6014 36.6917 42.1344C35.3115 42.6593 33.7385 43.0163 31.4332 43.1225C29.1214 43.2224 28.3869 43.25 22.5 43.25C16.6132 43.25 15.8787 43.2288 13.5669 43.1225C11.2615 43.0163 9.69071 42.6593 8.30837 42.1344C6.86206 41.6014 5.55179 40.7652 4.46904 39.6842C3.36687 38.6223 2.51431 37.3372 1.97087 35.9187C1.43354 34.5651 1.07171 33.0224 0.963374 30.7592C0.859374 28.494 0.833374 27.7736 0.833374 22C0.833374 16.2264 0.855041 15.506 0.963374 13.2407C1.07171 10.9755 1.43354 9.437 1.97087 8.08125C2.51431 6.66275 3.36687 5.37768 4.46904 4.31575C5.55179 3.23478 6.86206 2.39861 8.30837 1.86563C9.68854 1.33863 11.2594 0.98375 13.5669 0.8775C15.8809 0.777625 16.6154 0.75 22.5022 0.75" fill="black"/>
</svg>
