<svg width="39" height="35" viewBox="0 0 39 35" fill="none" xmlns="http://www.w3.org/2000/svg">
<path d="M34.1875 18.6202L19.5 33.1667L4.8125 18.6202C3.84372 17.6775 3.08063 16.5444 2.57128 15.2923C2.06193 14.0402 1.81735 12.6962 1.85294 11.3449C1.88854 9.99358 2.20354 8.66431 2.7781 7.44074C3.35266 6.21718 4.17435 5.12583 5.19141 4.23543C6.20847 3.34502 7.39888 2.67485 8.68767 2.26711C9.97646 1.85937 11.3357 1.72289 12.6798 1.86628C14.024 2.00966 15.3239 2.4298 16.4976 3.10023C17.6714 3.77067 18.6937 4.67687 19.5 5.76179C20.3098 4.68475 21.3333 3.78646 22.5062 3.12314C23.6792 2.45982 24.9765 2.04575 26.3168 1.90685C27.6572 1.76795 29.0118 1.9072 30.2958 2.31589C31.5799 2.72458 32.7658 3.39392 33.7793 4.282C34.7928 5.17009 35.612 6.25781 36.1858 7.47708C36.7596 8.69635 37.0755 10.0209 37.1139 11.3679C37.1522 12.7149 36.912 14.0553 36.4085 15.3052C35.905 16.5552 35.1489 17.6877 34.1875 18.632" stroke="#F5831F" stroke-width="3" stroke-linecap="round" stroke-linejoin="round"/>
<path d="M19.5 5.75L13.0512 12.1988C12.6841 12.566 12.4778 13.0641 12.4778 13.5833C12.4778 14.1026 12.6841 14.6006 13.0512 14.9679L14.1146 16.0312C15.4658 17.3825 17.6592 17.3825 19.0104 16.0312L20.9688 14.0729C21.5471 13.4938 22.234 13.0344 22.9901 12.721C23.7461 12.4075 24.5565 12.2462 25.375 12.2462C26.1935 12.2462 27.0039 12.4075 27.76 12.721C28.516 13.0344 29.2029 13.4938 29.7813 14.0729L34.1875 18.4792M20.4792 24.3542L24.3958 28.2708M25.375 19.4583L29.2917 23.375" stroke="#F5831F" stroke-width="3" stroke-linecap="round" stroke-linejoin="round"/>
</svg>
