<svg width="45" height="44" viewBox="0 0 45 44" fill="none" xmlns="http://www.w3.org/2000/svg">
<path d="M22.5 0.75C10.54 0.75 0.833374 10.27 0.833374 22C0.833374 33.73 10.54 43.25 22.5 43.25C34.46 43.25 44.1667 33.73 44.1667 22C44.1667 10.27 34.46 0.75 22.5 0.75ZM32.5534 15.2C32.2284 18.5575 30.82 26.7175 30.105 30.4788C29.8017 32.0725 29.195 32.6038 28.6317 32.6675C27.375 32.7738 26.4217 31.86 25.2084 31.0738C23.3017 29.8413 22.2184 29.0763 20.3767 27.8863C18.2317 26.505 19.6184 25.74 20.8534 24.5075C21.1784 24.1888 26.725 19.2375 26.8334 18.7913C26.8484 18.7237 26.8464 18.6535 26.8275 18.5868C26.8087 18.5202 26.7735 18.459 26.725 18.4088C26.595 18.3025 26.4217 18.345 26.27 18.3662C26.075 18.4088 23.0417 20.385 17.1267 24.295C16.26 24.8687 15.48 25.1662 14.7867 25.145C14.0067 25.1237 12.5334 24.72 11.4284 24.3587C10.0634 23.9338 9.00171 23.7 9.08837 22.9562C9.13171 22.5737 9.67337 22.1912 10.6917 21.7875C17.0184 19.0887 21.2217 17.3038 23.3234 16.4538C29.3467 13.9888 30.5817 13.5637 31.405 13.5637C31.5784 13.5637 31.99 13.6062 32.25 13.8187C32.4667 13.9887 32.5317 14.2225 32.5534 14.3925C32.5317 14.52 32.575 14.9025 32.5534 15.2Z" fill="black"/>
</svg>
