<svg width="44" height="44" viewBox="0 0 44 44" fill="none" xmlns="http://www.w3.org/2000/svg">
<path d="M36.9812 6.93386C35.0327 4.96634 32.7121 3.40629 30.1547 2.34463C27.5972 1.28298 24.854 0.740941 22.085 0.750115C10.4825 0.750115 1.0262 10.2064 1.0262 21.8089C1.0262 25.5276 2.0037 29.1401 3.8312 32.3276L0.856201 43.2501L12.0125 40.3176C15.0937 41.9964 18.5575 42.8889 22.085 42.8889C33.6875 42.8889 43.1437 33.4326 43.1437 21.8301C43.1437 16.1989 40.955 10.9076 36.9812 6.93386ZM22.085 39.3189C18.94 39.3189 15.8587 38.4689 13.16 36.8751L12.5225 36.4926L5.89245 38.2351L7.6562 31.7751L7.2312 31.1164C5.48349 28.3264 4.55567 25.1011 4.5537 21.8089C4.5537 12.1614 12.4162 4.29886 22.0637 4.29886C26.7387 4.29886 31.1375 6.12636 34.4312 9.44136C36.0624 11.0646 37.355 12.9955 38.2342 15.1222C39.1133 17.2489 39.5614 19.5289 39.5525 21.8301C39.595 31.4776 31.7325 39.3189 22.085 39.3189ZM31.69 26.2289C31.1587 25.9739 28.5662 24.6989 28.0987 24.5076C27.61 24.3376 27.27 24.2526 26.9087 24.7626C26.5475 25.2939 25.5487 26.4839 25.2512 26.8239C24.9537 27.1851 24.635 27.2276 24.1037 26.9514C23.5725 26.6964 21.8725 26.1226 19.875 24.3376C18.3025 22.9351 17.2612 21.2139 16.9425 20.6826C16.645 20.1514 16.9 19.8751 17.1762 19.5989C17.41 19.3651 17.7075 18.9826 17.9625 18.6851C18.2175 18.3876 18.3237 18.1539 18.4937 17.8139C18.6637 17.4526 18.5787 17.1551 18.4512 16.9001C18.3237 16.6451 17.2612 14.0526 16.8362 12.9901C16.4112 11.9701 15.965 12.0976 15.6462 12.0764H14.6262C14.265 12.0764 13.7125 12.2039 13.2237 12.7351C12.7562 13.2664 11.3962 14.5414 11.3962 17.1339C11.3962 19.7264 13.2875 22.2339 13.5425 22.5739C13.7975 22.9351 17.2612 28.2476 22.5312 30.5214C23.785 31.0739 24.7625 31.3926 25.5275 31.6264C26.7812 32.0301 27.9287 31.9664 28.8425 31.8389C29.8625 31.6901 31.9662 30.5639 32.3912 29.3314C32.8375 28.0989 32.8375 27.0576 32.6887 26.8239C32.54 26.5901 32.2212 26.4839 31.69 26.2289Z" fill="black"/>
</svg>
